# xmcd CD database file
#
# Track frame offsets:
#	150
#	14557
#	32759
#	49327
#	68885
#	90274
#	117007
#	135307
#	180082
#	197281
#	216767
#	239176
#	256517
#	273717
#
# Disc length: 3668 seconds
#
# Revision: 0
# Processed by: cddbd v1.4PL0 Copyright (c) Steve Scherf et al.
# Submitted via: CDex 1.50beta9
#
DISCID=b90e520e
DTITLE=Little Elmo and The Mambo Kings - Car Lot
DYEAR=2001
DGENRE=Blues
TTITLE0=Take You Back Home
TTITLE1=Same Old Blues
TTITLE2=Buzzard Luck
TTITLE3=Get Angry
TTITLE4=Juke box Drive
TTITLE5=Hello Sundown
TTITLE6=Car Lot
TTITLE7=Baby Please Don't Go
TTITLE8=Stay With Me
TTITLE9=I Gottcha'
TTITLE10=Burger Man
TTITLE11=Oh Baby
TTITLE12=In The Blood
TTITLE13=Kids
EXTD=YEAR: 2001
EXTT0=
EXTT1=
EXTT2=
EXTT3=
EXTT4=
EXTT5=
EXTT6=
EXTT7=
EXTT8=
EXTT9=
EXTT10=
EXTT11=
EXTT12=
EXTT13=
PLAYORDER=
